<?xml version="1.0" encoding="utf-8"?>
<!-- Generator: Adobe Illustrator 15.0.0, SVG Export Plug-In . SVG Version: 6.00 Build 0)  -->
<!DOCTYPE svg PUBLIC "-//W3C//DTD SVG 1.1//EN" "http://www.w3.org/Graphics/SVG/1.1/DTD/svg11.dtd">
<svg version="1.1" id="Calque_1" xmlns:serif="http://www.serif.com/"
	 xmlns="http://www.w3.org/2000/svg" xmlns:xlink="http://www.w3.org/1999/xlink" x="0px" y="0px" width="595.281px"
	 height="267.344px" viewBox="0 0 595.281 267.344" enable-background="new 0 0 595.281 267.344" xml:space="preserve">
<rect id="Plan-de-travail1" serif:id="Plan de travail1" fill="none" width="593.902" height="273.526">
</rect>
<g>
	<defs>
		<rect id="SVGID_1_" width="593.902" height="273.526"/>
	</defs>
	<clipPath id="SVGID_2_">
		<use xlink:href="#SVGID_1_"  overflow="visible"/>
	</clipPath>
	<g clip-path="url(#SVGID_2_)">
		<g transform="matrix(1,0,0,1,-481.337,-849.597)">
			<g enable-background="new    ">
				<path d="M484.356,907.49v-57.891h5.208v52.925h22.163v4.965H484.356z"/>
			</g>
			<g enable-background="new    ">
				<path d="M511.161,867.402h-2.099v-17.803h6.217L511.161,867.402z"/>
			</g>
			<g enable-background="new    ">
				<path d="M547.736,894.006h-18.328l-3.795,13.483h-5.409l16.955-57.891h2.745l17.036,57.891h-5.369L547.736,894.006z
					 M530.821,889.04h15.542l-7.63-26.685l-0.162-2.14l-0.162,2.14L530.821,889.04z"/>
			</g>
			<g>
				<path d="M596.1,907.49h-1.655l-3.028-4.643c-1.265,1.669-2.799,2.994-4.602,3.977c-1.803,0.982-3.809,1.474-6.015,1.474h-3.028
					c-1.965,0-3.815-0.371-5.551-1.11s-3.25-1.756-4.542-3.048c-1.292-1.292-2.308-2.799-3.048-4.521
					c-0.741-1.722-1.11-3.566-1.11-5.531v-31.085c0-1.964,0.37-3.808,1.11-5.531c0.74-1.722,1.756-3.229,3.048-4.521
					c1.292-1.292,2.806-2.307,4.542-3.048c1.736-0.74,3.586-1.11,5.551-1.11h4.118c1.964,0,3.808,0.371,5.531,1.11
					c1.722,0.741,3.229,1.756,4.521,3.048c1.292,1.292,2.308,2.799,3.048,4.521c0.74,1.723,1.11,3.566,1.11,5.531v2.341
					l-5.208,0.808v-3.149c0-1.292-0.242-2.496-0.727-3.613c-0.484-1.116-1.144-2.092-1.978-2.927
					c-0.834-0.834-1.811-1.494-2.927-1.978c-1.117-0.484-2.321-0.727-3.613-0.727h-3.633c-1.292,0-2.497,0.242-3.613,0.727
					c-1.117,0.484-2.1,1.144-2.947,1.978c-0.848,0.834-1.514,1.811-1.998,2.927c-0.485,1.117-0.727,2.321-0.727,3.613v31.085
					c0,1.292,0.242,2.497,0.727,3.613c0.484,1.117,1.15,2.099,1.998,2.947s1.83,1.514,2.947,1.999
					c1.116,0.484,2.321,0.727,3.613,0.727h3.633c1.292,0,2.496-0.242,3.613-0.727c1.116-0.484,2.092-1.151,2.927-1.999
					c0.834-0.848,1.494-1.83,1.978-2.947s0.727-2.321,0.727-3.613v-12.071h-9.245v-4.965H596.1V907.49z"/>
				<path d="M608.534,907.49v-57.891h32.579v4.965h-27.371v21.518h22.163v4.965h-22.163v21.477h27.371v4.965H608.534z"/>
				<path d="M680.877,907.49l-24.141-42.146l-0.484-2.503v44.649h-5.208v-57.891h2.705l24.141,42.187l0.525,2.463v-44.649h5.208
					v57.891H680.877z"/>
				<path d="M727.484,899.617c-0.74,1.723-1.756,3.229-3.048,4.521c-1.292,1.292-2.799,2.308-4.521,3.048
					c-1.723,0.74-3.566,1.11-5.531,1.11h-4.118c-1.965,0-3.815-0.371-5.551-1.11s-3.25-1.756-4.542-3.048
					c-1.292-1.292-2.308-2.799-3.048-4.521c-0.741-1.722-1.11-3.566-1.11-5.531v-31.085c0-1.964,0.37-3.808,1.11-5.531
					c0.74-1.722,1.756-3.229,3.048-4.521c1.292-1.292,2.806-2.307,4.542-3.048c1.736-0.74,3.586-1.11,5.551-1.11h4.118
					c1.964,0,3.808,0.371,5.531,1.11c1.722,0.741,3.229,1.756,4.521,3.048c1.292,1.292,2.308,2.799,3.048,4.521
					c0.74,1.723,1.11,3.566,1.11,5.531v2.341l-5.208,0.808v-3.149c0-1.292-0.242-2.496-0.727-3.613
					c-0.484-1.116-1.144-2.092-1.978-2.927c-0.834-0.834-1.811-1.494-2.927-1.978c-1.117-0.484-2.321-0.727-3.613-0.727h-3.633
					c-1.292,0-2.497,0.242-3.613,0.727c-1.117,0.484-2.1,1.144-2.947,1.978c-0.848,0.834-1.514,1.811-1.998,2.927
					c-0.485,1.117-0.727,2.321-0.727,3.613v31.085c0,1.292,0.242,2.497,0.727,3.613c0.484,1.117,1.15,2.099,1.998,2.947
					s1.83,1.514,2.947,1.999c1.116,0.484,2.321,0.727,3.613,0.727h3.633c1.292,0,2.496-0.242,3.613-0.727
					c1.116-0.484,2.092-1.151,2.927-1.999c0.834-0.848,1.494-1.83,1.978-2.947s0.727-2.321,0.727-3.613v-3.149l5.208,0.848v2.301
					C728.594,896.052,728.224,897.895,727.484,899.617z"/>
				<path d="M740.18,907.49v-57.891h32.579v4.965h-27.371v21.518h22.163v4.965h-22.163v21.477h27.371v4.965H740.18z"/>
			</g>
			<g enable-background="new    ">
				<path d="M569.887,1007.006c-0.444,1.034-1.054,1.938-1.829,2.713c-0.775,0.775-1.684,1.385-2.725,1.829
					s-2.152,0.666-3.331,0.666h-10.997V977.48h10.997c1.179,0,2.289,0.222,3.331,0.666c1.042,0.444,1.95,1.054,2.725,1.829
					c0.775,0.775,1.384,1.683,1.829,2.725c0.444,1.042,0.666,2.152,0.666,3.331v17.658
					C570.553,1004.866,570.331,1005.973,569.887,1007.006z M567.428,986.03c0-0.775-0.146-1.498-0.436-2.168
					c-0.291-0.67-0.69-1.259-1.199-1.768c-0.508-0.509-1.098-0.908-1.768-1.199c-0.67-0.291-1.393-0.436-2.168-0.436h-7.727v28.775
					h7.727c0.775,0,1.498-0.146,2.168-0.436c0.67-0.291,1.26-0.687,1.768-1.188c0.509-0.5,0.909-1.086,1.199-1.756
					s0.436-1.393,0.436-2.168V986.03z"/>
				<path d="M577.989,1012.214V977.48h19.547v2.979h-16.422v12.91h13.298v2.979h-13.298v12.886h16.422v2.979H577.989z"/>
			</g>
			<g enable-background="new    ">
				<path d="M617.859,1012.214v-69.469h6.249v63.51h26.596v5.959H617.859z"/>
			</g>
			<g enable-background="new    ">
				<path d="M650.025,964.109h-2.519v-21.364h7.46L650.025,964.109z"/>
			</g>
			<g enable-background="new    ">
				<path d="M693.916,996.033h-21.994l-4.554,16.181h-6.492l20.347-69.469h3.294l20.443,69.469h-6.443L693.916,996.033z
					 M673.617,990.075h18.651l-9.156-32.022l-0.194-2.567l-0.193,2.567L673.617,990.075z"/>
			</g>
			<g enable-background="new    ">
				<path d="M726.763,996.954l0.193,2.567l0.194-2.567l15.405-54.209h6.443l-20.443,69.469h-3.294l-20.347-69.469h6.492
					L726.763,996.954z"/>
			</g>
			<g enable-background="new    ">
				<path d="M757.912,1012.214v-69.469h39.094v5.958h-32.845v25.821h26.596v5.958h-26.596v25.772h32.845v5.959H757.912z"/>
			</g>
			<g>
				<path d="M844.723,1012.214l-28.97-50.576l-0.581-3.003v53.579h-6.25v-69.469h3.246l28.97,50.624l0.63,2.955v-53.579h6.249
					v69.469H844.723z"/>
				<path d="M880.766,948.704v63.51h-6.25v-63.51h-16.567v-5.958h39.385v5.958H880.766z"/>
				<path d="M944.009,1002.768c-0.889,2.067-2.107,3.875-3.657,5.426c-1.551,1.55-3.359,2.77-5.426,3.657
					c-2.067,0.888-4.28,1.332-6.637,1.332h-4.941c-2.358,0-4.578-0.444-6.661-1.332s-3.899-2.107-5.45-3.657
					c-1.55-1.551-2.77-3.358-3.657-5.426c-0.889-2.066-1.332-4.279-1.332-6.637v-53.386h6.249v53.386
					c0,1.55,0.291,2.995,0.872,4.335c0.581,1.341,1.381,2.52,2.397,3.537c1.018,1.017,2.196,1.816,3.537,2.397
					c1.34,0.581,2.785,0.872,4.336,0.872h4.359c1.551,0,2.995-0.291,4.336-0.872c1.34-0.581,2.511-1.381,3.512-2.397
					c1.001-1.018,1.793-2.196,2.374-3.537c0.581-1.34,0.872-2.785,0.872-4.335v-53.386h6.249v53.386
					C945.341,998.489,944.897,1000.701,944.009,1002.768z"/>
				<path d="M992.913,1012.214l-18.845-29.648h-8.574v29.648h-6.249v-69.469h22.042c2.356,0,4.569,0.444,6.637,1.332
					c2.066,0.889,3.875,2.107,5.426,3.658c1.55,1.55,2.769,3.367,3.657,5.45c0.888,2.083,1.332,4.304,1.332,6.661v5.62
					c0,2.358-0.444,4.578-1.332,6.661c-0.889,2.083-2.107,3.9-3.657,5.45c-1.551,1.55-3.359,2.77-5.426,3.658
					c-2.067,0.889-4.28,1.332-6.637,1.332l18.845,29.648H992.913z M992.089,959.846c0-1.55-0.291-2.995-0.872-4.335
					c-0.581-1.34-1.373-2.519-2.374-3.537c-1.001-1.017-2.172-1.816-3.512-2.398c-1.341-0.581-2.785-0.872-4.336-0.872h-15.502
					v27.904h15.502c1.551,0,2.995-0.291,4.336-0.872c1.34-0.581,2.511-1.38,3.512-2.398c1.001-1.017,1.793-2.196,2.374-3.536
					c0.581-1.34,0.872-2.786,0.872-4.336V959.846z"/>
				<path d="M1012.048,1012.214v-69.469h39.095v5.958h-32.845v25.821h26.596v5.958h-26.596v25.772h32.845v5.959H1012.048z"/>
			</g>
			<g enable-background="new    ">
				<path d="M482.555,1116.941v-34.734h19.547v2.979H485.68v12.91h13.298v2.979H485.68v12.886h16.422v2.979H482.555z"/>
				<path d="M516.49,1085.186v31.755h-3.125v-31.755h-8.284v-2.979h19.692v2.979H516.49z"/>
				<path d="M560.029,1111.733c-0.444,1.034-1.054,1.938-1.829,2.713c-0.775,0.775-1.684,1.385-2.725,1.829
					s-2.152,0.666-3.331,0.666h-10.997v-34.734h10.997c1.179,0,2.289,0.222,3.331,0.666s1.95,1.054,2.725,1.829
					c0.775,0.774,1.384,1.684,1.829,2.725c0.444,1.042,0.666,2.152,0.666,3.331v17.657
					C560.695,1109.593,560.473,1110.699,560.029,1111.733z M557.571,1090.757c0-0.775-0.146-1.498-0.436-2.168
					s-0.69-1.26-1.199-1.769c-0.508-0.509-1.098-0.908-1.768-1.199c-0.67-0.29-1.393-0.436-2.168-0.436h-7.727v28.775H552
					c0.775,0,1.498-0.146,2.168-0.436c0.67-0.291,1.26-0.687,1.768-1.188c0.509-0.5,0.909-1.086,1.199-1.756
					s0.436-1.393,0.436-2.168V1090.757z"/>
				<path d="M568.131,1116.941v-34.734h19.547v2.979h-16.422v12.91h13.298v2.979h-13.298v12.886h16.422v2.979H568.131z"/>
			</g>
			<g enable-background="new    ">
				<path d="M619.408,1116.941v-69.469h6.249v63.51h26.596v5.959H619.408z"/>
			</g>
			<g enable-background="new    ">
				<path d="M651.576,1068.836h-2.519v-21.364h7.46L651.576,1068.836z"/>
			</g>
			<g enable-background="new    ">
				<path d="M669.404,1116.941v-69.469h6.25v69.469H669.404z"/>
			</g>
			<g>
				<path d="M727.343,1116.941l-28.97-50.575l-0.581-3.004v53.579h-6.25v-69.469h3.246l28.97,50.624l0.63,2.955v-53.579h6.249
					v69.469H727.343z"/>
				<path d="M772.589,1100.76h-21.994l-4.554,16.181h-6.492l20.347-69.469h3.294l20.443,69.469h-6.443L772.589,1100.76z
					 M752.291,1094.802h18.651l-9.156-32.021l-0.194-2.567l-0.194,2.567L752.291,1094.802z"/>
			</g>
			<g enable-background="new    ">
				<path d="M806.453,1053.431v63.51h-6.25v-63.51h-16.567v-5.959h39.385v5.959H806.453z"/>
			</g>
			<g enable-background="new    ">
				<path d="M849.808,1053.431v63.51h-6.25v-63.51h-16.567v-5.959h39.385v5.959H849.808z"/>
			</g>
			<g>
				<path d="M876.306,1116.941v-69.469h39.095v5.959h-32.845v25.82h26.596v5.959h-26.596v25.771h32.845v5.959H876.306z"/>
				<path d="M963.119,1116.941l-28.97-50.575l-0.581-3.004v53.579h-6.25v-69.469h3.246l28.97,50.624l0.63,2.955v-53.579h6.249
					v69.469H963.119z"/>
				<path d="M1020.064,1106.526c-0.889,2.066-2.107,3.875-3.657,5.426c-1.551,1.55-3.367,2.77-5.45,3.657
					c-2.083,0.889-4.304,1.332-6.661,1.332h-21.994v-69.469h21.994c2.357,0,4.578,0.444,6.661,1.332
					c2.083,0.889,3.899,2.107,5.45,3.658c1.55,1.55,2.769,3.366,3.657,5.449c0.888,2.083,1.332,4.304,1.332,6.661v35.315
					C1021.396,1102.246,1020.952,1104.459,1020.064,1106.526z M1015.147,1064.573c0-1.55-0.291-2.995-0.872-4.336
					c-0.581-1.34-1.381-2.519-2.398-3.536c-1.017-1.018-2.196-1.816-3.536-2.397c-1.341-0.582-2.785-0.872-4.336-0.872h-15.453
					v57.551h15.453c1.551,0,2.995-0.29,4.336-0.872c1.34-0.581,2.52-1.372,3.536-2.373c1.018-1.001,1.817-2.172,2.398-3.513
					c0.581-1.34,0.872-2.785,0.872-4.336V1064.573z"/>
				<path d="M1073.013,1107.494c-0.889,2.067-2.107,3.875-3.657,5.426c-1.551,1.55-3.359,2.77-5.426,3.657
					c-2.067,0.888-4.28,1.332-6.637,1.332h-4.941c-2.358,0-4.578-0.444-6.661-1.332s-3.899-2.107-5.45-3.657
					c-1.55-1.551-2.77-3.358-3.657-5.426c-0.889-2.066-1.332-4.279-1.332-6.637v-53.386h6.249v53.386
					c0,1.55,0.291,2.995,0.872,4.335c0.581,1.341,1.381,2.52,2.397,3.537c1.018,1.017,2.196,1.816,3.537,2.397
					c1.34,0.581,2.785,0.872,4.336,0.872h4.359c1.551,0,2.995-0.291,4.336-0.872c1.34-0.581,2.511-1.381,3.512-2.397
					c1.001-1.018,1.793-2.196,2.374-3.537c0.581-1.34,0.872-2.785,0.872-4.335v-53.386h6.249v53.386
					C1074.345,1103.215,1073.901,1105.428,1073.013,1107.494z"/>
			</g>
		</g>
	</g>
</g>
</svg>
